<svg xmlns="http://www.w3.org/2000/svg" width="18.835" height="14.65" viewBox="0 0 18.835 14.65">
  <path id="Icon_awesome-shopping-basket" data-name="Icon awesome-shopping-basket" d="M18.835,8.267V8.79a.785.785,0,0,1-.785.785h-.262l-.854,5.977A1.57,1.57,0,0,1,15.381,16.9H3.454A1.57,1.57,0,0,1,1.9,15.552L1.046,9.575H.785A.785.785,0,0,1,0,8.79V8.267a.785.785,0,0,1,.785-.785h2.2l3.492-4.8A1.046,1.046,0,1,1,8.171,3.912l-2.6,3.57h7.686l-2.6-3.57a1.046,1.046,0,0,1,1.693-1.231l3.492,4.8h2.2A.785.785,0,0,1,18.835,8.267ZM10.2,14.022V10.359a.785.785,0,1,0-1.57,0v3.662a.785.785,0,1,0,1.57,0Zm3.662,0V10.359a.785.785,0,0,0-1.57,0v3.662a.785.785,0,1,0,1.57,0Zm-7.325,0V10.359a.785.785,0,0,0-1.57,0v3.662a.785.785,0,1,0,1.57,0Z" transform="translate(0 -2.25)" fill="#707070"/>
</svg>
