<svg xmlns="http://www.w3.org/2000/svg" width="794.67" height="615.311" viewBox="0 0 794.67 615.311">
  <g id="undraw_ride_a_bicycle_re_6tjy" transform="translate(0 0)">
    <path id="Path_1" data-name="Path 1" d="M774.46,374.977a25.326,25.326,0,0,0-17.989-7.45V352.71a25.8,25.8,0,0,0-25.818-25.818V315.726H736.8a9.911,9.911,0,1,0,0-19.822h-6.145v-7.747h-3.039V295.9h-7.334a9.911,9.911,0,0,0,0,19.822h7.334v11.166h-18.93a13.709,13.709,0,0,0-13.71,13.712v26.922H690.6a51.434,51.434,0,0,0-51.437,51.441v35.979A54.579,54.579,0,0,0,601.094,495.1H578.547V472.318H564.878v-9.58h8.391a9.911,9.911,0,1,0,0-19.822h-8.391v-6.289h-3.037v6.289h-5.09a9.911,9.911,0,0,0,0,19.822h5.09v9.621a13.7,13.7,0,0,0-12.91,13.673v9.15a51.444,51.444,0,0,0-48.6,51.363V757.09H781.91V392.965a25.326,25.326,0,0,0-7.45-17.988Z" transform="translate(-202.201 -142.393)" fill="#f2f2f2"/>
    <path id="Path_2" data-name="Path 2" d="M487.36,367.522V352.714a25.819,25.819,0,0,0-25.819-25.819h0V312.422h6.012a9.911,9.911,0,0,0,0-19.822h-6.012v-4.435H458.5V292.6h-7.469a9.911,9.911,0,0,0,0,19.822H458.5v14.472h-18.94a13.714,13.714,0,0,0-13.714,13.714v26.913h-4.371a51.444,51.444,0,0,0-51.444,51.444V452.3a54.553,54.553,0,0,0-32.476,42.8H309.429V472.318H295.76V459.434h4.959a9.911,9.911,0,1,0,0-19.822H295.76v-2.986h-3.038v2.986H284.2a9.911,9.911,0,0,0,0,19.822h8.521v12.924a13.7,13.7,0,0,0-12.91,13.673v9.15a51.444,51.444,0,0,0-48.6,51.363V757.09H512.8V392.961a25.44,25.44,0,0,0-25.44-25.44Z" transform="translate(-202.201 -142.393)" fill="#f2f2f2"/>
    <rect id="Rectangle_5" data-name="Rectangle 5" width="18.985" height="15.188" transform="translate(117.1 443.834) rotate(180)" fill="#fff"/>
    <rect id="Rectangle_6" data-name="Rectangle 6" width="18.985" height="15.188" transform="translate(85.965 443.834) rotate(180)" fill="#fff"/>
    <rect id="Rectangle_7" data-name="Rectangle 7" width="18.985" height="15.188" transform="translate(117.1 482.563) rotate(180)" fill="#fff"/>
    <rect id="Rectangle_8" data-name="Rectangle 8" width="18.985" height="15.188" transform="translate(85.965 482.563) rotate(180)" fill="#fff"/>
    <rect id="Rectangle_9" data-name="Rectangle 9" width="18.985" height="15.188" transform="translate(117.1 521.292) rotate(180)" fill="#fff"/>
    <rect id="Rectangle_10" data-name="Rectangle 10" width="18.985" height="15.188" transform="translate(85.965 521.292) rotate(180)" fill="#fff"/>
    <rect id="Rectangle_11" data-name="Rectangle 11" width="18.985" height="15.188" transform="translate(85.965 560.021) rotate(180)" fill="#fff"/>
    <rect id="Rectangle_12" data-name="Rectangle 12" width="18.985" height="15.188" transform="translate(85.965 598.75) rotate(180)" fill="#fff"/>
    <rect id="Rectangle_13" data-name="Rectangle 13" width="61.511" height="4.556" transform="translate(269.971 400.928) rotate(180)" fill="#fff"/>
    <rect id="Rectangle_14" data-name="Rectangle 14" width="61.511" height="4.556" transform="translate(269.971 429.026) rotate(180)" fill="#fff"/>
    <rect id="Rectangle_15" data-name="Rectangle 15" width="61.511" height="4.556" transform="translate(269.971 457.123) rotate(180)" fill="#fff"/>
    <rect id="Rectangle_16" data-name="Rectangle 16" width="18.985" height="15.188" transform="translate(263.896 208.043) rotate(180)" fill="#fff"/>
    <rect id="Rectangle_17" data-name="Rectangle 17" width="18.985" height="15.188" transform="translate(386.218 482.563) rotate(180)" fill="#fff"/>
    <rect id="Rectangle_18" data-name="Rectangle 18" width="18.985" height="15.188" transform="translate(355.083 482.563) rotate(180)" fill="#fff"/>
    <rect id="Rectangle_19" data-name="Rectangle 19" width="18.985" height="15.188" transform="translate(386.218 521.292) rotate(180)" fill="#fff"/>
    <rect id="Rectangle_20" data-name="Rectangle 20" width="18.985" height="15.188" transform="translate(355.083 521.292) rotate(180)" fill="#fff"/>
    <rect id="Rectangle_21" data-name="Rectangle 21" width="18.985" height="15.188" transform="translate(386.218 560.021) rotate(180)" fill="#fff"/>
    <rect id="Rectangle_22" data-name="Rectangle 22" width="18.985" height="15.188" transform="translate(355.083 560.021) rotate(180)" fill="#fff"/>
    <rect id="Rectangle_23" data-name="Rectangle 23" width="18.985" height="15.188" transform="translate(386.218 598.75) rotate(180)" fill="#fff"/>
    <rect id="Rectangle_24" data-name="Rectangle 24" width="18.985" height="15.188" transform="translate(355.083 598.75) rotate(180)" fill="#fff"/>
    <rect id="Rectangle_25" data-name="Rectangle 25" width="18.985" height="15.188" transform="translate(533.014 208.043) rotate(180)" fill="#fff"/>
    <rect id="Rectangle_26" data-name="Rectangle 26" width="46.763" height="9.911" transform="translate(532.946 257.576)" fill="#fff"/>
    <rect id="Rectangle_27" data-name="Rectangle 27" width="46.763" height="9.911" transform="translate(532.946 287.309)" fill="#fff"/>
    <rect id="Rectangle_28" data-name="Rectangle 28" width="46.763" height="9.911" transform="translate(532.946 317.041)" fill="#fff"/>
    <rect id="Rectangle_29" data-name="Rectangle 29" width="46.763" height="9.911" transform="translate(532.946 346.774)" fill="#fff"/>
    <rect id="Rectangle_30" data-name="Rectangle 30" width="46.763" height="9.911" transform="translate(532.946 376.507)" fill="#fff"/>
    <rect id="Rectangle_31" data-name="Rectangle 31" width="46.763" height="9.911" transform="translate(532.946 406.239)" fill="#fff"/>
    <path id="Path_3" data-name="Path 3" d="M309.242,462.575l10.744,8.991L360.55,433.48l-15.857-13.269Z" fill="#ffb6b6"/>
    <path id="Path_4" data-name="Path 4" d="M543.229,601.927l-22.753-15.705,59.908-94.981C536.964,466,507.1,435.215,482.739,401.4c-8.28-11.413-13.327-24.7-1.776-33.257q.81-.6,1.663-1.137c13.172-8.208,8.9,4.093,26.952-1.948l16.314,17.4,35.247,34.3,60.121,38.378c12.091,7.718,15.445,23.952,7.493,36.26q-.63.975-1.342,1.893Z" transform="translate(-202.201 -142.393)" fill="#2f2e41"/>
    <path id="Path_5" data-name="Path 5" d="M512.8,597.644l18.838,13.944-6.433,7.687,7.2,26.056a6.261,6.261,0,0,1-10.054,6.47l-21.361-17.876,2.682-10.685-7.8,6.4-8.054-6.74Z" transform="translate(-202.201 -142.393)" fill="#2f2e41"/>
    <rect id="Rectangle_32" data-name="Rectangle 32" width="123.401" height="10" transform="translate(168.114 401.897) rotate(-19.677)" fill="#3f3d56"/>
    <path id="Path_6" data-name="Path 6" d="M513.686,663.477,483.41,637.336a10.5,10.5,0,1,1,13.724-15.895l30.276,26.141a10.5,10.5,0,1,1-13.724,15.895Z" transform="translate(-202.201 -142.393)" fill="#3f3d56"/>
    <path id="Path_7" data-name="Path 7" d="M685.671,361.46a13.844,13.844,0,0,1-18.192-10.942l-108.154-27.85,17.638-18.507,103.011,30.247a13.919,13.919,0,0,1,5.7,27.052Z" transform="translate(-202.201 -142.393)" fill="#ffb6b6"/>
    <path id="Path_8" data-name="Path 8" d="M521.369,232.152s-17.586,2.038-17.27,22.3,43.425,66.43,50.15,74.079,73.844,11.557,73.844,11.557l20.967-18.436-62.168-20.946Z" transform="translate(-202.201 -142.393)" fill="#82ada9"/>
    <path id="Path_9" data-name="Path 9" d="M485.7,327.27l-3.967,18.608s-7.22,15.487-5.819,19.625c1.388,4.115,63.883,26.485,63.883,26.485s5.354-27.9,14.289-46.725Z" transform="translate(-202.201 -142.393)" fill="#ffb6b6"/>
    <path id="Path_10" data-name="Path 10" d="M685.983,618.312,649.89,635.555a10.5,10.5,0,0,1-9.053-18.949l36.092-17.243a10.5,10.5,0,0,1,9.053,18.948Z" transform="translate(-202.201 -142.393)" fill="#3f3d56"/>
    <path id="Path_11" data-name="Path 11" d="M822.89,755.959A113.98,113.98,0,1,1,936.87,641.98a113.98,113.98,0,0,1-113.98,113.98Zm0-217.406A103.426,103.426,0,1,0,926.316,641.98,103.426,103.426,0,0,0,822.89,538.554Z" transform="translate(-202.201 -142.393)" fill="#3f3d56"/>
    <circle id="Ellipse_4" data-name="Ellipse 4" cx="16" cy="16" r="16" transform="translate(609.709 491.567)" fill="#3f3d56"/>
    <path id="Path_12" data-name="Path 12" d="M354.45,757.513a108,108,0,1,1,108-108,108,108,0,0,1-108,108Zm0-206a98,98,0,1,0,98,98,98,98,0,0,0-98-98Z" transform="translate(-202.201 -142.393)" fill="#3f3d56"/>
    <circle id="Ellipse_5" data-name="Ellipse 5" cx="16" cy="16" r="16" transform="translate(136.248 491.12)" fill="#3f3d56"/>
    <circle id="Ellipse_6" data-name="Ellipse 6" cx="18.553" cy="18.553" r="18.553" transform="translate(350.695 486.567)" fill="#3f3d56"/>
    <path id="Path_13" data-name="Path 13" d="M156.357,505.986l-7.3-6.839L279.3,360.214l232.412-69.557L627.053,493.091l-8.688,4.951L506.957,302.518l-222.209,66.5Z" fill="#3f3d56"/>
    <rect id="Rectangle_33" data-name="Rectangle 33" width="98.272" height="10" transform="translate(255.219 499.678)" fill="#3f3d56"/>
    <rect id="Rectangle_34" data-name="Rectangle 34" width="10" height="52.283" transform="translate(277.022 312.334)" fill="#3f3d56"/>
    <rect id="Rectangle_35" data-name="Rectangle 35" width="10" height="106.158" transform="translate(471.952 197.101) rotate(-17.897)" fill="#3f3d56"/>
    <rect id="Rectangle_36" data-name="Rectangle 36" width="10" height="162.247" transform="matrix(0.863, -0.505, 0.505, 0.863, 277.391, 363.094)" fill="#3f3d56"/>
    <rect id="Rectangle_37" data-name="Rectangle 37" width="213.016" height="10" transform="matrix(0.826, -0.563, 0.563, 0.826, 379.895, 498.442)" fill="#3f3d56"/>
    <path id="Path_14" data-name="Path 14" d="M503.41,460.959h-40a10.5,10.5,0,0,1,0-21h40a10.5,10.5,0,1,1,0,21Z" transform="translate(-202.201 -142.393)" fill="#82ada9"/>
    <path id="Path_15" data-name="Path 15" d="M698.41,347.959h-40a10.5,10.5,0,1,1,0-21h40a10.5,10.5,0,1,1,0,21Z" transform="translate(-202.201 -142.393)" fill="#82ada9"/>
    <path id="Path_16" data-name="Path 16" d="M956.381,693.788l1.144-25.719a83.066,83.066,0,0,1,38.745-9.808c-18.608,15.214-16.283,44.541-28.9,65a49.964,49.964,0,0,1-36.639,23.089l-15.572,9.534a83.725,83.725,0,0,1,17.647-67.845,80.875,80.875,0,0,1,14.863-13.81C951.4,684.063,956.381,693.788,956.381,693.788Z" transform="translate(-202.201 -142.393)" fill="#f2f2f2"/>
    <path id="Path_17" data-name="Path 17" d="M996.871,756.513a1.187,1.187,0,0,1-1.19,1.19H203.391a1.19,1.19,0,0,1,0-2.38h792.29a1.187,1.187,0,0,1,1.19,1.19Z" transform="translate(-202.201 -142.393)" fill="#ccc"/>
    <circle id="Ellipse_7" data-name="Ellipse 7" cx="29.568" cy="29.568" r="29.568" transform="translate(308.745 21.529) rotate(-9.649)" fill="#ffb6b6"/>
    <circle id="Ellipse_8" data-name="Ellipse 8" cx="26.701" cy="26.701" r="26.701" transform="translate(638.161 131.104)" fill="#fd6584"/>
    <path id="Path_18" data-name="Path 18" d="M926.826,287.556a13.248,13.248,0,0,0-11.179-9.291c-.058-.008-.113,0-.171,0a1.663,1.663,0,0,0-.228-.052c-12.211-1.578-26.306,4.262-31.395,15.838a12.935,12.935,0,0,0-10.833-5.279,13.193,13.193,0,0,0-11.8,9.511,1.548,1.548,0,0,0,.689,1.694,6.766,6.766,0,0,0,2.79,1.416q3.326.7,6.676,1.291,6.537,1.144,13.142,1.85a195.422,195.422,0,0,0,26.918,1.017c2.993-.093,5.879-.193,8.621-1.513A12.827,12.827,0,0,0,925,299.721a14.551,14.551,0,0,0,1.825-12.165Z" transform="translate(-202.201 -142.393)" fill="#f0f0f0"/>
    <path id="Path_19" data-name="Path 19" d="M871.33,323.157a13.248,13.248,0,0,0-11.179-9.291c-.058-.008-.113,0-.171,0a1.669,1.669,0,0,0-.228-.052c-12.211-1.578-26.306,4.262-31.4,15.838a12.934,12.934,0,0,0-10.833-5.279,13.193,13.193,0,0,0-11.8,9.511,1.549,1.549,0,0,0,.69,1.694,6.766,6.766,0,0,0,2.789,1.416q3.326.7,6.676,1.291,6.537,1.144,13.142,1.85a195.426,195.426,0,0,0,26.918,1.017c2.992-.093,5.878-.193,8.621-1.513a12.829,12.829,0,0,0,4.945-4.315A14.552,14.552,0,0,0,871.33,323.157Z" transform="translate(-202.201 -142.393)" fill="#f0f0f0"/>
    <path id="Path_20" data-name="Path 20" d="M728.07,470.986,694.676,400.5l.452-.214a19.5,19.5,0,0,1,25.97,9.274L737.8,444.8a19.5,19.5,0,0,1-9.274,25.97Z" transform="translate(-202.201 -142.393)" fill="#3f3d56"/>
    <path id="Path_21" data-name="Path 21" d="M625.992,483.375a19.529,19.529,0,0,1-18.676-13.991l-.142-.479,74.812-22.074.142.479a19.5,19.5,0,0,1-13.185,24.221l-37.406,11.037a19.587,19.587,0,0,1-5.545.807Z" transform="translate(-202.201 -142.393)" fill="#3f3d56"/>
    <path id="Path_22" data-name="Path 22" d="M433.406,462.464l13.613-3.358-6.293-55.3-20.092,4.958Z" fill="#ffb6b6"/>
    <path id="Path_23" data-name="Path 23" d="M629.16,588.989l21.245-9.9,3.685,9.322,26.333,6.11a6.261,6.261,0,0,1,.887,11.922l-25.9,10.238-8.109-7.456,1.9,9.91L639.43,623Z" transform="translate(-202.201 -142.393)" fill="#2f2e41"/>
    <path id="Path_24" data-name="Path 24" d="M649.983,555.029l-29.026,17.407L590,463.1c-50.22-.428-96.655-6.051-134.568-23.369-12.845-5.816-18.559-21.2-12.762-34.356q.406-.923.882-1.812c7.38-13.653,21.688-21.671,34.383-35.859l62.976,23.251L536.4,407.918l71.237,3.576c14.326.719,25.279,13.163,24.464,27.793q-.065,1.159-.228,2.309Z" transform="translate(-202.201 -142.393)" fill="#2f2e41"/>
    <path id="Path_25" data-name="Path 25" d="M526.842,216.982,546.195,227.1a5.532,5.532,0,0,1,3.475,5.4l5.041,20.172,17.737,37.543s4.622,19.981-4.2,38.847-28.34,65.9-28.34,65.9c-12.731,30.494-117.233,6.945-90-19,3.24-3.087,21.453-29.163,28.117-30.662l16.351-93.566a33.944,33.944,0,0,1,16.5-23.807c2.62-1.481,5.048-2.358,6.712-1.91C521.386,226.9,523.179,218.307,526.842,216.982Z" transform="translate(-202.201 -142.393)" fill="#82ada9"/>
    <path id="Path_26" data-name="Path 26" d="M694.921,340.959a13.844,13.844,0,0,1-19.89-7.419L563.6,326l13.944-21.429,106.811,10.836a13.919,13.919,0,0,1,10.563,25.547Z" transform="translate(-202.201 -142.393)" fill="#ffb6b6"/>
    <path id="Path_27" data-name="Path 27" d="M509.686,243.987s-16.914,5.229-12.885,25.093,54.875,57.336,62.889,63.621,74.711-2.187,74.711-2.187l17.229-21.969-64.956-9.185Z" transform="translate(-202.201 -142.393)" fill="#82ada9"/>
    <path id="Path_28" data-name="Path 28" d="M576.592,178.336c-4.465,2.2-9.52-.988-13.427-4.158l1.4,1.182c-6.778,6.731-9.88,16.347-11.347,25.8s-1.544,19.079-3.419,28.456-5.872,18.8-13.457,24.6c-10.161,7.773-24.289,7.426-36.879,5.2-.168-.032-.324-.056-.492-.089a76.723,76.723,0,0,0,3.728-30.456,69.759,69.759,0,0,1-16.464,27.62,160.139,160.139,0,0,1-24.409-8.611c-5.105-2.287-10.61-5.428-12.076-10.829-1.469-5.36,1.756-11.03,6.111-14.469s9.725-5.264,14.7-7.734,9.874-5.939,11.82-11.139c4.489-11.962-8.788-25.5-3.789-37.262,2.465-5.785,8.617-8.981,14.4-11.456a213.126,213.126,0,0,1,27.176-9.479c8.131-2.234,16.626-3.993,24.946-2.669S561.627,149.142,564.7,157c5,1.634,10.319,3.48,13.563,7.645S581.319,176.011,576.592,178.336Z" transform="translate(-202.201 -142.393)" fill="#2f2e41"/>
    <rect id="Rectangle_38" data-name="Rectangle 38" width="168.737" height="2" transform="translate(67.657 544.094)" fill="#3f3d56"/>
    <rect id="Rectangle_39" data-name="Rectangle 39" width="168.737" height="2" transform="translate(67.657 564.094)" fill="#3f3d56"/>
    <rect id="Rectangle_40" data-name="Rectangle 40" width="168.737" height="2" transform="translate(541.657 544.094)" fill="#3f3d56"/>
    <rect id="Rectangle_41" data-name="Rectangle 41" width="168.737" height="2" transform="translate(541.657 564.094)" fill="#3f3d56"/>
    <ellipse id="Ellipse_9" data-name="Ellipse 9" cx="11.5" cy="17.5" rx="11.5" ry="17.5" transform="translate(511.444 274.676) rotate(-20.288)" fill="#82ada9"/>
  </g>
</svg>
