<svg xmlns="http://www.w3.org/2000/svg" width="175.353" height="166.585" viewBox="0 0 175.353 166.585">
  <path id="Icon_material-work" data-name="Icon material-work" d="M160.817,38.071H125.747V20.535A17.475,17.475,0,0,0,108.212,3H73.141A17.475,17.475,0,0,0,55.606,20.535V38.071H20.535A17.4,17.4,0,0,0,3.088,55.606L3,152.05a17.475,17.475,0,0,0,17.535,17.535H160.817a17.475,17.475,0,0,0,17.535-17.535V55.606A17.475,17.475,0,0,0,160.817,38.071Zm-52.606,0H73.141V20.535h35.071Z" transform="translate(-3 -3)" fill="#82ada9"/>
</svg>
