<svg xmlns="http://www.w3.org/2000/svg" width="101.887" height="140.095" viewBox="0 0 101.887 140.095">
  <path id="Icon_material-developer-mode" data-name="Icon material-developer-mode" d="M25.1,26.972H88.783V39.708h12.736V14.236A12.719,12.719,0,0,0,88.783,1.564L25.1,1.5A12.773,12.773,0,0,0,12.368,14.236V39.708H25.1Zm53.554,73.8,29.229-29.229L78.658,42.319l-8.979,9.042L89.866,71.547,69.679,91.734l8.979,9.042ZM44.208,91.734,24.021,71.547,44.208,51.361l-8.979-9.042L6,71.547l29.229,29.229Zm44.576,24.389H25.1V103.387H12.368v25.472A12.773,12.773,0,0,0,25.1,141.595H88.783a12.773,12.773,0,0,0,12.736-12.736V103.387H88.783Z" transform="translate(-6 -1.5)" fill="#82ada9"/>
</svg>
