<svg id="Icon_map-grocery-or-supermarket" data-name="Icon map-grocery-or-supermarket" xmlns="http://www.w3.org/2000/svg" width="169.78" height="138.596" viewBox="0 0 169.78 138.596">
  <path id="Path_29" data-name="Path 29" d="M56.519,41.22A13.86,13.86,0,1,1,42.66,27.36,13.86,13.86,0,0,1,56.519,41.22Z" transform="translate(109.796 83.517)" fill="#82ada9"/>
  <path id="Path_30" data-name="Path 30" d="M35.639,41.22A13.86,13.86,0,1,1,21.78,27.36,13.86,13.86,0,0,1,35.639,41.22Z" transform="translate(30.194 83.517)" fill="#82ada9"/>
  <path id="Path_31" data-name="Path 31" d="M162.85,97.872H54.645l2.311-3.749a6.936,6.936,0,0,0,.807-5.381l-2.256-8.683,100.423-5.218a7.393,7.393,0,0,0,6.919-7.287V21.644a6.95,6.95,0,0,0-6.93-6.93H38.526L37.171,9.507A6.93,6.93,0,0,0,30.463,4.32H6.93a6.93,6.93,0,0,0,0,13.86H25.107l18.5,71.186-7.276,11.8a6.934,6.934,0,0,0,5.9,10.568H162.85a6.93,6.93,0,1,0,0-13.86Z" transform="translate(0 -4.32)" fill="#82ada9"/>
</svg>
