<svg xmlns="http://www.w3.org/2000/svg" width="209.777" height="167.822" viewBox="0 0 209.777 167.822">
  <path id="Icon_awesome-network-wired" data-name="Icon awesome-network-wired" d="M209.777,86.533V81.289a5.243,5.243,0,0,0-5.244-5.244H112.755V62.933h23.6a10.49,10.49,0,0,0,10.489-10.489V10.489A10.49,10.49,0,0,0,136.355,0H73.422A10.49,10.49,0,0,0,62.933,10.489V52.444A10.49,10.49,0,0,0,73.422,62.933h23.6V76.044H5.244A5.243,5.243,0,0,0,0,81.289v5.244a5.243,5.243,0,0,0,5.244,5.244H39.333v13.111H20.978a10.49,10.49,0,0,0-10.489,10.489v41.955a10.49,10.49,0,0,0,10.489,10.489H73.422a10.49,10.49,0,0,0,10.489-10.489V115.377a10.49,10.49,0,0,0-10.489-10.489H55.066V91.777h99.644v13.111H136.355a10.49,10.49,0,0,0-10.489,10.489v41.955a10.49,10.49,0,0,0,10.489,10.489H188.8a10.49,10.49,0,0,0,10.489-10.489V115.377A10.49,10.49,0,0,0,188.8,104.888H170.444V91.777h34.089A5.243,5.243,0,0,0,209.777,86.533ZM83.911,41.955V20.978h41.955V41.955ZM62.933,146.844H31.467V125.866H62.933Zm115.377,0H146.844V125.866H178.31Z" fill="#82ada9"/>
</svg>
